<svg width="223" height="182" viewBox="0 0 223 182" fill="none" xmlns="http://www.w3.org/2000/svg">
<ellipse rx="14.0609" ry="14.06" transform="matrix(0.865905 0.500208 -0.499792 0.866145 63.203 93.1039)" fill="#CA4590"/>
<rect width="28.0817" height="26.963" transform="matrix(0.87038 0.492381 -0.491964 0.870616 99.6797 63.3945)" fill="#E5BD54"/>
<ellipse rx="14.0609" ry="14.06" transform="matrix(0.865905 0.500208 -0.499792 0.866145 112.035 70.2426)" fill="#E5BD54"/>
<ellipse rx="14.0609" ry="14.06" transform="matrix(0.865905 0.500208 -0.499792 0.866145 99.3436 92.4457)" fill="#E5BD54"/>
<path fill-rule="evenodd" clip-rule="evenodd" d="M173.124 65.9771L148.773 51.9107L129.374 85.5259C129.331 85.5982 129.288 85.6705 129.245 85.7447C129.202 85.8189 129.159 85.8912 129.12 85.9654C129.108 85.983 129.101 86.0025 129.089 86.0201C125.429 92.7037 127.761 101.126 134.394 104.956C141.026 108.788 149.483 106.602 153.44 100.086L153.597 99.8111L173.124 65.9771Z" fill="#7986E9"/>
<ellipse rx="14.0609" ry="14.06" transform="matrix(0.865905 0.500208 -0.499792 0.866145 160.789 59.2114)" fill="#7986E9"/>
<path d="M49.9801 124.504H52.2841L54.5521 130.456L56.8441 124.504H59.1241V133H57.6841V125.944H57.6601L55.0801 133H54.0241L51.4441 125.944H51.4201V133H49.9801V124.504ZM82.8575 129.88C82.8575 130.392 82.7695 130.856 82.5935 131.272C82.4175 131.68 82.1775 132.028 81.8735 132.316C81.5695 132.604 81.2095 132.828 80.7935 132.988C80.3775 133.14 79.9255 133.216 79.4375 133.216C78.9495 133.216 78.4975 133.14 78.0815 132.988C77.6655 132.828 77.3015 132.604 76.9895 132.316C76.6855 132.028 76.4455 131.68 76.2695 131.272C76.1015 130.856 76.0175 130.392 76.0175 129.88V124.504H77.5295V129.832C77.5295 130.04 77.5615 130.26 77.6255 130.492C77.6895 130.716 77.7935 130.924 77.9375 131.116C78.0895 131.308 78.2855 131.468 78.5255 131.596C78.7735 131.716 79.0775 131.776 79.4375 131.776C79.7975 131.776 80.0975 131.716 80.3375 131.596C80.5855 131.468 80.7815 131.308 80.9255 131.116C81.0775 130.924 81.1855 130.716 81.2495 130.492C81.3135 130.26 81.3455 130.04 81.3455 129.832V124.504H82.8575V129.88ZM103.878 126.328C103.718 126.096 103.502 125.928 103.23 125.824C102.966 125.712 102.686 125.656 102.39 125.656C102.214 125.656 102.042 125.676 101.874 125.716C101.714 125.756 101.566 125.82 101.43 125.908C101.302 125.996 101.198 126.112 101.118 126.256C101.038 126.392 100.998 126.556 100.998 126.748C100.998 127.036 101.098 127.256 101.298 127.408C101.498 127.56 101.746 127.692 102.042 127.804C102.338 127.916 102.662 128.024 103.014 128.128C103.366 128.232 103.69 128.376 103.986 128.56C104.282 128.744 104.53 128.988 104.73 129.292C104.93 129.596 105.03 130 105.03 130.504C105.03 130.96 104.946 131.36 104.778 131.704C104.61 132.04 104.382 132.32 104.094 132.544C103.814 132.768 103.486 132.936 103.11 133.048C102.734 133.16 102.338 133.216 101.922 133.216C101.394 133.216 100.886 133.128 100.398 132.952C99.9096 132.776 99.4896 132.48 99.1376 132.064L100.278 130.96C100.462 131.24 100.702 131.46 100.998 131.62C101.302 131.772 101.622 131.848 101.958 131.848C102.134 131.848 102.31 131.824 102.486 131.776C102.662 131.728 102.822 131.656 102.966 131.56C103.11 131.464 103.226 131.344 103.314 131.2C103.402 131.048 103.446 130.876 103.446 130.684C103.446 130.372 103.346 130.132 103.146 129.964C102.946 129.796 102.698 129.656 102.402 129.544C102.106 129.424 101.782 129.312 101.43 129.208C101.078 129.104 100.754 128.964 100.458 128.788C100.162 128.604 99.9136 128.364 99.7136 128.068C99.5136 127.764 99.4136 127.36 99.4136 126.856C99.4136 126.416 99.5016 126.036 99.6776 125.716C99.8616 125.396 100.098 125.132 100.386 124.924C100.682 124.708 101.018 124.548 101.394 124.444C101.77 124.34 102.154 124.288 102.546 124.288C102.994 124.288 103.426 124.356 103.842 124.492C104.266 124.628 104.646 124.852 104.982 125.164L103.878 126.328ZM121.604 124.504H127.232V125.872H123.116V127.96H127.016V129.328H123.116V131.632H127.448V133H121.604V124.504ZM148.104 126.328C147.944 126.096 147.728 125.928 147.456 125.824C147.192 125.712 146.912 125.656 146.616 125.656C146.44 125.656 146.268 125.676 146.1 125.716C145.94 125.756 145.792 125.82 145.656 125.908C145.528 125.996 145.424 126.112 145.344 126.256C145.264 126.392 145.224 126.556 145.224 126.748C145.224 127.036 145.324 127.256 145.524 127.408C145.724 127.56 145.972 127.692 146.268 127.804C146.564 127.916 146.888 128.024 147.24 128.128C147.592 128.232 147.916 128.376 148.212 128.56C148.508 128.744 148.756 128.988 148.956 129.292C149.156 129.596 149.256 130 149.256 130.504C149.256 130.96 149.172 131.36 149.004 131.704C148.836 132.04 148.608 132.32 148.32 132.544C148.04 132.768 147.712 132.936 147.336 133.048C146.96 133.16 146.564 133.216 146.148 133.216C145.62 133.216 145.112 133.128 144.624 132.952C144.136 132.776 143.716 132.48 143.364 132.064L144.504 130.96C144.688 131.24 144.928 131.46 145.224 131.62C145.528 131.772 145.848 131.848 146.184 131.848C146.36 131.848 146.536 131.824 146.712 131.776C146.888 131.728 147.048 131.656 147.192 131.56C147.336 131.464 147.452 131.344 147.54 131.2C147.628 131.048 147.672 130.876 147.672 130.684C147.672 130.372 147.572 130.132 147.372 129.964C147.172 129.796 146.924 129.656 146.628 129.544C146.332 129.424 146.008 129.312 145.656 129.208C145.304 129.104 144.98 128.964 144.684 128.788C144.388 128.604 144.14 128.364 143.94 128.068C143.74 127.764 143.64 127.36 143.64 126.856C143.64 126.416 143.728 126.036 143.904 125.716C144.088 125.396 144.324 125.132 144.612 124.924C144.908 124.708 145.244 124.548 145.62 124.444C145.996 124.34 146.38 124.288 146.772 124.288C147.22 124.288 147.652 124.356 148.068 124.492C148.492 124.628 148.872 124.852 149.208 125.164L148.104 126.328Z" fill="#464646"/>
</svg>
