<svg width="301" height="265" viewBox="0 0 301 265" fill="none" xmlns="http://www.w3.org/2000/svg">
<path d="M41.1305 137.237C55.0314 145.261 72.8043 140.503 80.8271 126.608C88.8502 112.713 84.0851 94.944 70.1842 86.9191C56.2833 78.8942 38.5106 83.6526 30.4876 97.5475C22.4647 111.442 27.2296 129.211 41.1305 137.237Z" fill="#C88AFF"/>
<path fill-rule="evenodd" clip-rule="evenodd" d="M181.775 79.3786C181.216 80.3459 180.611 81.269 179.962 82.1465L154.171 127.763L153.987 127.659C145.39 139.671 128.906 143.419 115.843 135.878C102.934 128.424 97.9033 112.569 103.676 99.2161L103.642 99.1969L103.834 98.8578C104.239 97.9546 104.694 97.0634 105.2 96.1876C105.615 95.4679 106.057 94.7728 106.523 94.1026L131.064 50.7003L131.182 50.7668C131.265 50.6166 131.35 50.4668 131.436 50.3175C139.46 36.4226 157.232 31.6642 171.133 39.6891C185.033 47.714 189.798 65.4835 181.775 79.3786Z" fill="#7987E9"/>
<path fill-rule="evenodd" clip-rule="evenodd" d="M282.879 56.0274C290.456 42.2188 285.634 24.8166 271.92 16.8994C258.02 8.8745 240.248 13.633 232.224 27.5278C232.107 27.7319 231.992 27.9369 231.879 28.1427L192.45 96.4223L192.45 96.4232C192.361 96.5723 192.272 96.7214 192.184 96.8744C192.168 96.9016 192.152 96.9287 192.136 96.9558C192.063 97.0809 191.991 97.2043 191.925 97.3303C191.913 97.3485 191.903 97.3677 191.893 97.3868C191.883 97.406 191.874 97.4252 191.861 97.4433C184.295 111.251 189.116 128.651 202.828 136.564C216.538 144.48 234.021 139.964 242.201 126.503L242.526 125.935L282.893 56.0358L282.879 56.0274Z" fill="#CA4590"/>
<path d="M28 176.949H32.763L37.4515 189.245L42.1897 176.949H46.9031V194.501H43.9262V179.923H43.8766L38.5431 194.501H36.36L31.0265 179.923H30.9769V194.501H28V176.949ZM95.9663 188.055C95.9663 189.113 95.7844 190.071 95.4205 190.931C95.0567 191.774 94.5605 192.493 93.9321 193.088C93.3036 193.683 92.5594 194.145 91.6995 194.476C90.8395 194.79 89.9051 194.947 88.8962 194.947C87.8874 194.947 86.953 194.79 86.093 194.476C85.233 194.145 84.4806 193.683 83.8356 193.088C83.2071 192.493 82.711 191.774 82.3471 190.931C81.9998 190.071 81.8262 189.113 81.8262 188.055V176.949H84.9519V187.956C84.9519 188.386 85.0181 188.84 85.1504 189.319C85.2827 189.782 85.4977 190.212 85.7953 190.608C86.1096 191.005 86.5147 191.336 87.0109 191.6C87.5236 191.848 88.152 191.972 88.8962 191.972C89.6405 191.972 90.2606 191.848 90.7568 191.6C91.2695 191.336 91.6746 191.005 91.9723 190.608C92.2866 190.212 92.5098 189.782 92.6421 189.319C92.7744 188.84 92.8406 188.386 92.8406 187.956V176.949H95.9663V188.055ZM139.421 180.717C139.09 180.238 138.644 179.89 138.082 179.676C137.536 179.444 136.957 179.329 136.345 179.329C135.981 179.329 135.626 179.37 135.278 179.452C134.948 179.535 134.642 179.667 134.361 179.849C134.096 180.031 133.881 180.271 133.716 180.568C133.55 180.849 133.468 181.188 133.468 181.585C133.468 182.179 133.674 182.634 134.088 182.948C134.501 183.262 135.014 183.535 135.626 183.766C136.238 183.998 136.907 184.221 137.635 184.436C138.363 184.65 139.033 184.948 139.644 185.328C140.256 185.708 140.769 186.212 141.183 186.84C141.596 187.468 141.803 188.303 141.803 189.344C141.803 190.286 141.629 191.113 141.282 191.823C140.934 192.517 140.463 193.096 139.868 193.559C139.289 194.021 138.611 194.369 137.834 194.6C137.056 194.831 136.238 194.947 135.378 194.947C134.286 194.947 133.236 194.765 132.227 194.402C131.217 194.038 130.349 193.426 129.622 192.567L131.979 190.286C132.359 190.865 132.856 191.319 133.468 191.65C134.096 191.964 134.757 192.121 135.452 192.121C135.816 192.121 136.18 192.071 136.544 191.972C136.907 191.873 137.238 191.724 137.536 191.526C137.834 191.327 138.073 191.08 138.255 190.782C138.437 190.468 138.528 190.113 138.528 189.716C138.528 189.071 138.321 188.576 137.908 188.229C137.495 187.881 136.982 187.592 136.37 187.361C135.758 187.113 135.088 186.882 134.361 186.667C133.633 186.452 132.963 186.163 132.351 185.799C131.739 185.419 131.226 184.923 130.812 184.312C130.399 183.683 130.192 182.849 130.192 181.808C130.192 180.899 130.374 180.114 130.738 179.452C131.118 178.791 131.607 178.246 132.202 177.816C132.814 177.37 133.509 177.039 134.286 176.825C135.063 176.61 135.857 176.502 136.668 176.502C137.594 176.502 138.487 176.643 139.347 176.924C140.223 177.205 141.009 177.668 141.703 178.312L139.421 180.717ZM176.066 176.949H187.7V179.775H179.191V184.088H187.254V186.915H179.191V191.675H188.147V194.501H176.066V176.949ZM230.848 180.717C230.517 180.238 230.071 179.89 229.508 179.676C228.963 179.444 228.384 179.329 227.772 179.329C227.408 179.329 227.053 179.37 226.705 179.452C226.375 179.535 226.069 179.667 225.787 179.849C225.523 180.031 225.308 180.271 225.142 180.568C224.977 180.849 224.894 181.188 224.894 181.585C224.894 182.179 225.101 182.634 225.515 182.948C225.928 183.262 226.441 183.535 227.053 183.766C227.664 183.998 228.334 184.221 229.062 184.436C229.79 184.65 230.459 184.948 231.071 185.328C231.683 185.708 232.196 186.212 232.609 186.84C233.023 187.468 233.23 188.303 233.23 189.344C233.23 190.286 233.056 191.113 232.709 191.823C232.361 192.517 231.89 193.096 231.295 193.559C230.716 194.021 230.038 194.369 229.26 194.6C228.483 194.831 227.664 194.947 226.804 194.947C225.713 194.947 224.663 194.765 223.654 194.402C222.645 194.038 221.777 193.426 221.049 192.567L223.406 190.286C223.786 190.865 224.282 191.319 224.894 191.65C225.523 191.964 226.184 192.121 226.879 192.121C227.243 192.121 227.607 192.071 227.97 191.972C228.334 191.873 228.665 191.724 228.963 191.526C229.26 191.327 229.5 191.08 229.682 190.782C229.864 190.468 229.955 190.113 229.955 189.716C229.955 189.071 229.748 188.576 229.335 188.229C228.921 187.881 228.409 187.592 227.797 187.361C227.185 187.113 226.515 186.882 225.787 186.667C225.06 186.452 224.39 186.163 223.778 185.799C223.166 185.419 222.653 184.923 222.24 184.312C221.827 183.683 221.62 182.849 221.62 181.808C221.62 180.899 221.802 180.114 222.166 179.452C222.546 178.791 223.034 178.246 223.629 177.816C224.241 177.37 224.936 177.039 225.713 176.825C226.49 176.61 227.284 176.502 228.094 176.502C229.021 176.502 229.914 176.643 230.774 176.924C231.65 177.205 232.436 177.668 233.13 178.312L230.848 180.717Z" fill="#1D263B"/>
<path d="M39.456 228.403H43.392C43.8827 228.403 44.336 228.462 44.752 228.579C45.1787 228.697 45.5413 228.873 45.84 229.107C46.1493 229.331 46.3893 229.625 46.56 229.987C46.7413 230.339 46.832 230.755 46.832 231.235C46.832 231.886 46.6507 232.419 46.288 232.835C45.9253 233.241 45.456 233.539 44.88 233.731V233.763C45.2213 233.785 45.5413 233.875 45.84 234.035C46.1387 234.185 46.3947 234.387 46.608 234.643C46.832 234.889 47.008 235.177 47.136 235.507C47.264 235.838 47.328 236.195 47.328 236.579C47.328 237.091 47.2213 237.545 47.008 237.939C46.8053 238.323 46.5227 238.649 46.16 238.915C45.7973 239.182 45.376 239.385 44.896 239.523C44.416 239.662 43.8987 239.731 43.344 239.731H39.456V228.403ZM40.992 233.107H43.088C43.376 233.107 43.648 233.081 43.904 233.027C44.16 232.963 44.384 232.862 44.576 232.723C44.768 232.585 44.9173 232.409 45.024 232.195C45.1413 231.982 45.2 231.721 45.2 231.411C45.2 230.963 45.056 230.574 44.768 230.243C44.48 229.913 44.0267 229.747 43.408 229.747H40.992V233.107ZM40.992 238.387H43.248C43.4827 238.387 43.7387 238.366 44.016 238.323C44.304 238.27 44.5707 238.174 44.816 238.035C45.0613 237.886 45.2693 237.689 45.44 237.443C45.6107 237.198 45.696 236.873 45.696 236.467C45.696 235.795 45.4773 235.294 45.04 234.963C44.6027 234.622 44.0107 234.451 43.264 234.451H40.992V238.387ZM49.1981 233.075C49.6035 232.702 50.0728 232.425 50.6061 232.243C51.1395 232.051 51.6728 231.955 52.2061 231.955C52.7608 231.955 53.2355 232.025 53.6301 232.163C54.0355 232.302 54.3661 232.489 54.6221 232.723C54.8781 232.958 55.0648 233.23 55.1821 233.539C55.3101 233.838 55.3741 234.153 55.3741 234.483V238.355C55.3741 238.622 55.3795 238.867 55.3901 239.091C55.4008 239.315 55.4168 239.529 55.4381 239.731H54.1581C54.1261 239.347 54.1101 238.963 54.1101 238.579H54.0781C53.7581 239.07 53.3795 239.417 52.9421 239.619C52.5048 239.822 51.9981 239.923 51.4221 239.923C51.0701 239.923 50.7341 239.875 50.4141 239.779C50.0941 239.683 49.8115 239.539 49.5661 239.347C49.3315 239.155 49.1448 238.921 49.0061 238.643C48.8675 238.355 48.7981 238.025 48.7981 237.651C48.7981 237.161 48.9048 236.75 49.1181 236.419C49.3421 236.089 49.6408 235.822 50.0141 235.619C50.3981 235.406 50.8408 235.257 51.3421 235.171C51.8541 235.075 52.3981 235.027 52.9741 235.027H54.0301V234.707C54.0301 234.515 53.9928 234.323 53.9181 234.131C53.8435 233.939 53.7315 233.769 53.5821 233.619C53.4328 233.459 53.2461 233.337 53.0221 233.251C52.7981 233.155 52.5315 233.107 52.2221 233.107C51.9448 233.107 51.6995 233.134 51.4861 233.187C51.2835 233.241 51.0968 233.31 50.9261 233.395C50.7555 233.47 50.6008 233.561 50.4621 233.667C50.3235 233.774 50.1901 233.875 50.0621 233.971L49.1981 233.075ZM53.2621 236.083C52.9208 236.083 52.5688 236.105 52.2061 236.147C51.8541 236.179 51.5288 236.249 51.2301 236.355C50.9421 236.462 50.7021 236.611 50.5101 236.803C50.3288 236.995 50.2381 237.241 50.2381 237.539C50.2381 237.977 50.3821 238.291 50.6701 238.483C50.9688 238.675 51.3688 238.771 51.8701 238.771C52.2648 238.771 52.6008 238.707 52.8781 238.579C53.1555 238.441 53.3795 238.265 53.5501 238.051C53.7208 237.838 53.8435 237.603 53.9181 237.347C53.9928 237.081 54.0301 236.819 54.0301 236.563V236.083H53.2621ZM62.887 234.163C62.6203 233.886 62.3377 233.678 62.039 233.539C61.751 233.39 61.4043 233.315 60.999 233.315C60.6043 233.315 60.2577 233.39 59.959 233.539C59.671 233.678 59.4257 233.875 59.223 234.131C59.031 234.377 58.8817 234.665 58.775 234.995C58.679 235.315 58.631 235.651 58.631 236.003C58.631 236.355 58.6897 236.691 58.807 237.011C58.9243 237.321 59.0897 237.593 59.303 237.827C59.5163 238.062 59.7723 238.249 60.071 238.387C60.3697 238.515 60.7057 238.579 61.079 238.579C61.4843 238.579 61.831 238.51 62.119 238.371C62.407 238.222 62.6737 238.009 62.919 237.731L63.943 238.755C63.5697 239.171 63.1323 239.47 62.631 239.651C62.1403 239.833 61.6177 239.923 61.063 239.923C60.4763 239.923 59.9377 239.827 59.447 239.635C58.967 239.443 58.551 239.177 58.199 238.835C57.847 238.483 57.575 238.067 57.383 237.587C57.191 237.097 57.095 236.558 57.095 235.971C57.095 235.385 57.191 234.846 57.383 234.355C57.575 233.865 57.8417 233.443 58.183 233.091C58.535 232.739 58.951 232.467 59.431 232.275C59.9217 232.073 60.4657 231.971 61.063 231.971C61.6177 231.971 62.1457 232.073 62.647 232.275C63.159 232.467 63.6017 232.766 63.975 233.171L62.887 234.163ZM65.1818 227.635H66.6218V235.443L69.8858 232.163H71.8858L68.3498 235.603L72.1898 239.731H70.1418L66.6218 235.795V239.731H65.1818V227.635ZM74.5666 236.467C74.5666 236.798 74.636 237.102 74.7746 237.379C74.924 237.646 75.116 237.875 75.3506 238.067C75.5853 238.259 75.8573 238.409 76.1666 238.515C76.476 238.622 76.796 238.675 77.1266 238.675C77.5746 238.675 77.964 238.574 78.2946 238.371C78.6253 238.158 78.9293 237.881 79.2066 237.539L80.2946 238.371C79.4946 239.406 78.3746 239.923 76.9346 239.923C76.3373 239.923 75.7933 239.822 75.3026 239.619C74.8226 239.417 74.412 239.139 74.0706 238.787C73.74 238.425 73.484 238.003 73.3026 237.523C73.1213 237.033 73.0306 236.505 73.0306 235.939C73.0306 235.374 73.1266 234.851 73.3186 234.371C73.5213 233.881 73.7933 233.459 74.1346 233.107C74.4866 232.745 74.9026 232.462 75.3826 232.259C75.8626 232.057 76.3853 231.955 76.9506 231.955C77.6226 231.955 78.188 232.073 78.6466 232.307C79.116 232.542 79.5 232.851 79.7986 233.235C80.0973 233.609 80.3106 234.035 80.4386 234.515C80.5773 234.985 80.6466 235.465 80.6466 235.955V236.467H74.5666ZM79.1106 235.315C79.1 234.995 79.0466 234.702 78.9506 234.435C78.8653 234.169 78.732 233.939 78.5506 233.747C78.3693 233.545 78.14 233.39 77.8626 233.283C77.596 233.166 77.2813 233.107 76.9186 233.107C76.5666 233.107 76.2413 233.177 75.9426 233.315C75.6546 233.443 75.4093 233.614 75.2066 233.827C75.004 234.041 74.844 234.281 74.7266 234.547C74.62 234.803 74.5666 235.059 74.5666 235.315H79.1106ZM89.9693 239.731H88.5293V238.643H88.4973C88.2199 239.049 87.8359 239.363 87.3453 239.587C86.8653 239.811 86.3693 239.923 85.8573 239.923C85.2706 239.923 84.7373 239.822 84.2573 239.619C83.7879 239.417 83.3826 239.134 83.0413 238.771C82.7106 238.409 82.4546 237.987 82.2733 237.507C82.0919 237.027 82.0013 236.505 82.0013 235.939C82.0013 235.374 82.0919 234.851 82.2733 234.371C82.4546 233.881 82.7106 233.459 83.0413 233.107C83.3826 232.745 83.7879 232.462 84.2573 232.259C84.7373 232.057 85.2706 231.955 85.8573 231.955C86.4013 231.955 86.9133 232.073 87.3933 232.307C87.8733 232.531 88.2413 232.841 88.4973 233.235H88.5293V227.635H89.9693V239.731ZM86.0333 238.579C86.4173 238.579 86.7639 238.515 87.0733 238.387C87.3826 238.249 87.6439 238.067 87.8573 237.843C88.0706 237.609 88.2359 237.331 88.3533 237.011C88.4706 236.681 88.5293 236.323 88.5293 235.939C88.5293 235.555 88.4706 235.203 88.3533 234.883C88.2359 234.553 88.0706 234.275 87.8573 234.051C87.6439 233.817 87.3826 233.635 87.0733 233.507C86.7639 233.369 86.4173 233.299 86.0333 233.299C85.6493 233.299 85.3026 233.369 84.9933 233.507C84.6839 233.635 84.4226 233.817 84.2093 234.051C83.9959 234.275 83.8306 234.553 83.7133 234.883C83.5959 235.203 83.5373 235.555 83.5373 235.939C83.5373 236.323 83.5959 236.681 83.7133 237.011C83.8306 237.331 83.9959 237.609 84.2093 237.843C84.4226 238.067 84.6839 238.249 84.9933 238.387C85.3026 238.515 85.6493 238.579 86.0333 238.579ZM96.6036 227.635H98.0436V233.235H98.0756C98.3316 232.841 98.6996 232.531 99.1796 232.307C99.6596 232.073 100.172 231.955 100.716 231.955C101.302 231.955 101.83 232.057 102.3 232.259C102.78 232.462 103.185 232.745 103.516 233.107C103.857 233.459 104.118 233.881 104.3 234.371C104.481 234.851 104.572 235.374 104.572 235.939C104.572 236.505 104.481 237.027 104.3 237.507C104.118 237.987 103.857 238.409 103.516 238.771C103.185 239.134 102.78 239.417 102.3 239.619C101.83 239.822 101.302 239.923 100.716 239.923C100.204 239.923 99.7023 239.811 99.2116 239.587C98.7316 239.363 98.353 239.049 98.0756 238.643H98.0436V239.731H96.6036V227.635ZM100.54 238.579C100.924 238.579 101.27 238.515 101.58 238.387C101.889 238.249 102.15 238.067 102.364 237.843C102.577 237.609 102.742 237.331 102.86 237.011C102.977 236.681 103.036 236.323 103.036 235.939C103.036 235.555 102.977 235.203 102.86 234.883C102.742 234.553 102.577 234.275 102.364 234.051C102.15 233.817 101.889 233.635 101.58 233.507C101.27 233.369 100.924 233.299 100.54 233.299C100.156 233.299 99.809 233.369 99.4996 233.507C99.1903 233.635 98.929 233.817 98.7156 234.051C98.5023 234.275 98.337 234.553 98.2196 234.883C98.1023 235.203 98.0436 235.555 98.0436 235.939C98.0436 236.323 98.1023 236.681 98.2196 237.011C98.337 237.331 98.5023 237.609 98.7156 237.843C98.929 238.067 99.1903 238.249 99.4996 238.387C99.809 238.515 100.156 238.579 100.54 238.579ZM105.473 232.147H107.137L109.393 238.067H109.425L111.569 232.147H113.121L109.521 241.363C109.393 241.694 109.26 241.993 109.121 242.259C108.982 242.537 108.817 242.771 108.625 242.963C108.433 243.155 108.198 243.305 107.921 243.411C107.654 243.518 107.324 243.571 106.929 243.571C106.716 243.571 106.497 243.555 106.273 243.523C106.06 243.502 105.852 243.449 105.649 243.363L105.825 242.051C106.113 242.169 106.401 242.227 106.689 242.227C106.913 242.227 107.1 242.195 107.249 242.131C107.409 242.078 107.542 241.993 107.649 241.875C107.766 241.769 107.862 241.641 107.937 241.491C108.012 241.342 108.086 241.171 108.161 240.979L108.625 239.779L105.473 232.147Z" fill="#1D263B"/>
<path d="M159.824 229.843H156.176V228.403H165.008V229.843H161.36V239.731H159.824V229.843ZM166.276 227.635H167.716V233.315H167.748C167.929 232.91 168.244 232.585 168.692 232.339C169.14 232.083 169.657 231.955 170.244 231.955C170.606 231.955 170.953 232.014 171.284 232.131C171.625 232.238 171.918 232.409 172.164 232.643C172.42 232.878 172.622 233.182 172.772 233.555C172.921 233.918 172.996 234.35 172.996 234.851V239.731H171.556V235.251C171.556 234.899 171.508 234.601 171.412 234.355C171.316 234.099 171.188 233.897 171.028 233.747C170.868 233.587 170.681 233.475 170.468 233.411C170.265 233.337 170.052 233.299 169.828 233.299C169.529 233.299 169.252 233.347 168.996 233.443C168.74 233.539 168.516 233.694 168.324 233.907C168.132 234.11 167.982 234.371 167.876 234.691C167.769 235.011 167.716 235.39 167.716 235.827V239.731H166.276V227.635ZM175.278 232.147H176.718V239.731H175.278V232.147ZM174.942 229.427C174.942 229.139 175.043 228.894 175.246 228.691C175.459 228.478 175.71 228.371 175.998 228.371C176.286 228.371 176.531 228.478 176.734 228.691C176.947 228.894 177.054 229.139 177.054 229.427C177.054 229.715 176.947 229.966 176.734 230.179C176.531 230.382 176.286 230.483 175.998 230.483C175.71 230.483 175.459 230.382 175.246 230.179C175.043 229.966 174.942 229.715 174.942 229.427ZM179.01 232.147H180.45V233.315H180.482C180.663 232.91 180.978 232.585 181.426 232.339C181.874 232.083 182.391 231.955 182.978 231.955C183.341 231.955 183.687 232.014 184.018 232.131C184.359 232.238 184.653 232.409 184.898 232.643C185.154 232.878 185.357 233.182 185.506 233.555C185.655 233.918 185.73 234.35 185.73 234.851V239.731H184.29V235.251C184.29 234.899 184.242 234.601 184.146 234.355C184.05 234.099 183.922 233.897 183.762 233.747C183.602 233.587 183.415 233.475 183.202 233.411C182.999 233.337 182.786 233.299 182.562 233.299C182.263 233.299 181.986 233.347 181.73 233.443C181.474 233.539 181.25 233.694 181.058 233.907C180.866 234.11 180.717 234.371 180.61 234.691C180.503 235.011 180.45 235.39 180.45 235.827V239.731H179.01V232.147ZM187.901 227.635H189.341V235.443L192.605 232.163H194.605L191.069 235.603L194.909 239.731H192.861L189.341 235.795V239.731H187.901V227.635ZM196.197 232.147H197.541V233.331H197.573C197.605 233.225 197.685 233.091 197.813 232.931C197.952 232.771 198.123 232.622 198.325 232.483C198.539 232.334 198.784 232.211 199.061 232.115C199.349 232.009 199.664 231.955 200.005 231.955C200.571 231.955 201.045 232.073 201.429 232.307C201.813 232.542 202.128 232.894 202.373 233.363C202.619 232.894 202.965 232.542 203.413 232.307C203.861 232.073 204.315 231.955 204.773 231.955C205.36 231.955 205.84 232.051 206.213 232.243C206.587 232.435 206.88 232.691 207.093 233.011C207.307 233.321 207.451 233.678 207.525 234.083C207.611 234.478 207.653 234.889 207.653 235.315V239.731H206.213V235.507C206.213 235.219 206.192 234.942 206.149 234.675C206.117 234.409 206.043 234.174 205.925 233.971C205.808 233.769 205.643 233.609 205.429 233.491C205.216 233.363 204.933 233.299 204.581 233.299C203.888 233.299 203.392 233.513 203.093 233.939C202.795 234.366 202.645 234.915 202.645 235.587V239.731H201.205V235.763C201.205 235.401 201.184 235.07 201.141 234.771C201.109 234.473 201.035 234.217 200.917 234.003C200.811 233.779 200.651 233.609 200.437 233.491C200.235 233.363 199.957 233.299 199.605 233.299C199.349 233.299 199.099 233.353 198.853 233.459C198.619 233.555 198.411 233.705 198.229 233.907C198.048 234.11 197.904 234.371 197.797 234.691C197.691 235.001 197.637 235.369 197.637 235.795V239.731H196.197V232.147ZM209.934 232.147H211.374V239.731H209.934V232.147ZM209.598 229.427C209.598 229.139 209.7 228.894 209.902 228.691C210.116 228.478 210.366 228.371 210.654 228.371C210.942 228.371 211.188 228.478 211.39 228.691C211.604 228.894 211.71 229.139 211.71 229.427C211.71 229.715 211.604 229.966 211.39 230.179C211.188 230.382 210.942 230.483 210.654 230.483C210.366 230.483 210.116 230.382 209.902 230.179C209.7 229.966 209.598 229.715 209.598 229.427ZM213.778 227.635H215.218V239.731H213.778V227.635ZM217.622 227.635H219.062V239.731H217.622V227.635Z" fill="#1D263B"/>
<path fill-rule="evenodd" clip-rule="evenodd" d="M135.53 247.02C128.058 247.02 122 240.971 122 233.51C122 226.049 128.058 220 135.53 220C143.002 220 149.06 226.049 149.06 233.51C149.06 240.971 143.002 247.02 135.53 247.02ZM135.53 245.152C141.969 245.152 147.189 239.94 147.189 233.51C147.189 227.08 141.969 221.868 135.53 221.868C129.09 221.868 123.87 227.08 123.87 233.51C123.87 239.94 129.09 245.152 135.53 245.152ZM132.059 236.13C132.208 236.13 132.368 236.107 132.46 236.073V237.092C132.265 237.149 131.967 237.195 131.727 237.195C130.5 237.195 129.962 236.68 129.962 235.409V232.308H128.987V231.312H129.962V229.859H131.268V231.312H132.403V232.308H131.268V235.215C131.268 235.867 131.486 236.13 132.059 236.13ZM140.081 231.175C141.319 231.175 142.075 231.976 142.075 233.544V237.126H140.769V233.67C140.769 232.64 140.368 232.228 139.715 232.228C138.947 232.228 138.488 232.88 138.488 233.99V237.126H137.182V233.533C137.182 232.709 136.815 232.228 136.139 232.228C135.36 232.228 134.913 232.892 134.913 234.013V237.126H133.606V231.312H134.855V232.011H134.878C135.291 231.45 135.806 231.175 136.494 231.175C137.296 231.175 137.915 231.541 138.213 232.228C138.637 231.564 139.199 231.175 140.081 231.175Z" fill="#FF3838"/>
</svg>
